<svg width="680" height="520" viewBox="0 0 680 520" fill="none" xmlns="http://www.w3.org/2000/svg"><defs><linearGradient id="g" x1="40" y1="23" x2="606" y2="508" gradientUnits="userSpaceOnUse"><stop stop-color="#F5FBFF"/><stop offset="1" stop-color="#EAF0FF"/></linearGradient><filter id="s" x="0" y="0" width="680" height="520"><feDropShadow dx="0" dy="24" stdDeviation="24" flood-color="#052D6B" flood-opacity=".16"/></filter></defs><rect x="30" y="30" width="620" height="460" rx="42" fill="url(#g)"/><g filter="url(#s)"><rect x="126" y="139" width="428" height="258" rx="34" fill="white"/><path d="M176 208h110v74H176v-74Z" fill="#0077FF"/><path d="M286 208h110v74H286v-74Z" fill="#071D3D"/><path d="M396 208h110v74H396v-74Z" fill="#35C0FF"/><path d="M221 282h110v74H221v-74Z" fill="#35C0FF"/><path d="M331 282h110v74H331v-74Z" fill="#0077FF"/><path d="M193 231h46M306 231h46M417 231h46M240 307h46M351 307h46" stroke="#D9F4FF" stroke-width="8" stroke-linecap="round"/></g><path d="M146 392h401l-39 48H203l-57-48Z" fill="#071D3D"/><path d="M116 441c70 24 137 24 203 0 70-24 135-24 194 0 28 11 57 13 87 4" stroke="#35C0FF" stroke-width="9" stroke-linecap="round"/><circle cx="130" cy="117" r="17" fill="#0077FF" opacity=".22"/><circle cx="575" cy="103" r="25" fill="#35C0FF" opacity=".22"/><text x="188" y="126" font-family="Inter, Arial" font-size="23" font-weight="900" fill="#071D3D">Consolidación LCL</text></svg>
