<svg width="680" height="520" viewBox="0 0 680 520" fill="none" xmlns="http://www.w3.org/2000/svg"><defs><linearGradient id="g" x1="62" y1="22" x2="618" y2="506" gradientUnits="userSpaceOnUse"><stop stop-color="#F5FBFF"/><stop offset="1" stop-color="#EAF0FF"/></linearGradient><filter id="s" x="0" y="0" width="680" height="520"><feDropShadow dx="0" dy="24" stdDeviation="24" flood-color="#052D6B" flood-opacity=".15"/></filter></defs><rect x="30" y="30" width="620" height="460" rx="42" fill="url(#g)"/><g filter="url(#s)"><rect x="128" y="98" width="424" height="318" rx="38" fill="white"/><path d="M188 196h108v82H188v-82Z" fill="#0077FF"/><path d="M296 196h108v82H296v-82Z" fill="#071D3D"/><path d="M404 196h88v82H404v-82Z" fill="#35C0FF"/><path d="M218 278h108v86H218v-86Z" fill="#35C0FF"/><path d="M326 278h136v86H326v-86Z" fill="#0077FF"/><path d="M213 226h44M321 226h44M424 226h35M243 313h44M351 313h72" stroke="#E7F8FF" stroke-width="8" stroke-linecap="round"/><path d="M340 108l160 74H180l160-74Z" fill="#EAF7FF" stroke="#0077FF" stroke-width="8" stroke-linejoin="round"/></g><path d="M178 430h324" stroke="#071D3D" stroke-width="12" stroke-linecap="round"/><circle cx="160" cy="154" r="16" fill="#35C0FF" opacity=".28"/><circle cx="540" cy="434" r="24" fill="#0077FF" opacity=".2"/><text x="194" y="470" font-family="Inter, Arial" font-size="23" font-weight="900" fill="#071D3D">Casillero Miami</text></svg>
