<svg width="960" height="500" viewBox="0 0 960 500" fill="none" xmlns="http://www.w3.org/2000/svg"><defs><linearGradient id="bg" x1="69" y1="35" x2="888" y2="459" gradientUnits="userSpaceOnUse"><stop stop-color="#081E42"/><stop offset="1" stop-color="#0E397A"/></linearGradient><filter id="s" x="0" y="0" width="960" height="500"><feDropShadow dx="0" dy="25" stdDeviation="28" flood-color="#052D6B" flood-opacity=".25"/></filter></defs><rect x="20" y="25" width="920" height="450" rx="46" fill="url(#bg)"/><g opacity=".25"><circle cx="480" cy="250" r="106" stroke="#8EDCFF"/><circle cx="480" cy="250" r="182" stroke="#8EDCFF"/><circle cx="480" cy="250" r="260" stroke="#8EDCFF"/><path d="M140 250h680M480 82v336" stroke="#8EDCFF"/></g><path d="M176 282C281 150 397 160 510 246c96 74 190 74 276-6" stroke="#35C0FF" stroke-width="8" stroke-linecap="round" stroke-dasharray="3 24"/><g filter="url(#s)"><rect x="110" y="208" width="165" height="90" rx="24" fill="white"/><text x="141" y="245" font-family="Inter, Arial" font-size="18" font-weight="900" fill="#071D3D">USA</text><text x="141" y="271" font-family="Inter, Arial" font-size="12" font-weight="800" fill="#0077FF">Miami / compras</text></g><g filter="url(#s)"><rect x="400" y="156" width="180" height="96" rx="24" fill="white"/><text x="437" y="194" font-family="Inter, Arial" font-size="18" font-weight="900" fill="#071D3D">Panamá</text><text x="437" y="220" font-family="Inter, Arial" font-size="12" font-weight="800" fill="#0077FF">aduanas / entrega</text></g><g filter="url(#s)"><rect x="674" y="250" width="170" height="92" rx="24" fill="white"/><text x="713" y="287" font-family="Inter, Arial" font-size="18" font-weight="900" fill="#071D3D">China</text><text x="713" y="313" font-family="Inter, Arial" font-size="12" font-weight="800" fill="#0077FF">LCL / proveedores</text></g><path d="M314 178l90 32-82 48 14-39-22-41ZM636 302l-68-74 96 17-34 19 6 38Z" fill="#35C0FF"/><circle cx="176" cy="282" r="13" fill="#35C0FF"/><circle cx="510" cy="246" r="13" fill="#35C0FF"/><circle cx="786" cy="240" r="13" fill="#35C0FF"/></svg>
