<svg width="680" height="520" viewBox="0 0 680 520" fill="none" xmlns="http://www.w3.org/2000/svg"><defs><linearGradient id="g" x1="58" y1="42" x2="611" y2="501" gradientUnits="userSpaceOnUse"><stop stop-color="#EEF8FF"/><stop offset="1" stop-color="#EAF0FF"/></linearGradient><filter id="s" x="0" y="0" width="680" height="520"><feDropShadow dx="0" dy="24" stdDeviation="24" flood-color="#052D6B" flood-opacity=".14"/></filter></defs><rect x="30" y="30" width="620" height="460" rx="42" fill="url(#g)"/><g filter="url(#s)"><rect x="105" y="112" width="470" height="294" rx="36" fill="white"/><path d="M105 154h470v42H105z" fill="#0A2B61"/><path d="M105 238h470v42H105z" fill="#0A2B61" opacity=".95"/><path d="M105 322h470v42H105z" fill="#0A2B61" opacity=".9"/><rect x="105" y="112" width="206" height="168" rx="34" fill="#0077FF"/><path d="M150 154l9 18 20 3-14 14 3 20-18-9-18 9 3-20-14-14 20-3 9-18Z" fill="white"/><path d="M223 170l7 14 16 2-11 11 3 16-15-7-14 7 3-16-11-11 16-2 6-14Z" fill="white" opacity=".85"/><path d="M269 220l5 11 12 2-9 8 3 12-11-6-10 6 2-12-8-8 12-2 4-11Z" fill="white" opacity=".7"/></g><path d="M206 402c58-76 136-118 236-125" stroke="#35C0FF" stroke-width="9" stroke-linecap="round" stroke-dasharray="2 22"/><path d="M462 268l95-36-49 80-13-32-33-12Z" fill="#0077FF"/><circle cx="205" cy="404" r="18" fill="#0A2B61"/><circle cx="462" cy="268" r="18" fill="#0A2B61"/><text x="166" y="452" font-family="Inter, Arial" font-size="23" font-weight="900" fill="#071D3D">Miami → Panamá</text></svg>
