<svg xmlns="http://www.w3.org/2000/svg" viewBox="0 0 720 520"><defs><linearGradient id="c" x1="0" x2="1"><stop stop-color="#071a3d"/><stop offset="1" stop-color="#096ee8"/></linearGradient><filter id="s"><feDropShadow dx="0" dy="22" stdDeviation="20" flood-color="#071a3d" flood-opacity=".16"/></filter></defs><rect width="720" height="520" rx="42" fill="#eef7ff"/><g filter="url(#s)"><rect x="70" y="80" width="580" height="360" rx="34" fill="#fff"/><path d="M112 340c110 40 223 38 320 6 72-24 128-22 174-8" fill="none" stroke="#8bc9ff" stroke-width="18" stroke-linecap="round"/><rect x="130" y="174" width="110" height="90" rx="12" fill="#f5a524"/><rect x="256" y="132" width="110" height="132" rx="12" fill="#0a7aff"/><rect x="382" y="190" width="110" height="74" rx="12" fill="#071a3d"/><rect x="188" y="281" width="376" height="56" rx="14" fill="url(#c)"/><path d="M208 309h326" stroke="#fff" stroke-width="9" stroke-linecap="round" opacity=".75"/><path d="M278 174h66M151 207h64M404 222h64" stroke="#fff" stroke-width="10" stroke-linecap="round" opacity=".8"/><circle cx="160" cy="359" r="20" fill="#071a3d"/><circle cx="540" cy="359" r="20" fill="#071a3d"/></g></svg>