<svg xmlns="http://www.w3.org/2000/svg" viewBox="0 0 980 720">
<defs>
  <linearGradient id="bg" x1="0" x2="1" y1="0" y2="1"><stop stop-color="#eef7ff"/><stop offset="1" stop-color="#cfe6ff"/></linearGradient>
  <linearGradient id="blue" x1="0" x2="1"><stop stop-color="#071a3d"/><stop offset="1" stop-color="#096ee8"/></linearGradient>
  <linearGradient id="cyan" x1="0" x2="1"><stop stop-color="#0a7aff"/><stop offset="1" stop-color="#4dc7ff"/></linearGradient>
  <filter id="shadow" x="-20%" y="-20%" width="140%" height="140%"><feDropShadow dx="0" dy="28" stdDeviation="30" flood-color="#071a3d" flood-opacity=".18"/></filter>
</defs>
<rect width="980" height="720" rx="54" fill="url(#bg)"/>
<circle cx="820" cy="120" r="120" fill="#fff" opacity=".55"/>
<circle cx="108" cy="592" r="180" fill="#096ee8" opacity=".08"/>
<g filter="url(#shadow)">
<rect x="100" y="92" width="780" height="460" rx="42" fill="#fff"/>
<rect x="100" y="92" width="780" height="82" rx="42" fill="#071a3d"/>
<circle cx="156" cy="133" r="12" fill="#14c3ff"/><circle cx="196" cy="133" r="12" fill="#77dcff"/><circle cx="236" cy="133" r="12" fill="#fff" opacity=".7"/>
<text x="292" y="143" font-family="Arial, sans-serif" font-size="22" font-weight="700" fill="#fff">Centro de control logístico</text>
<rect x="145" y="216" width="250" height="250" rx="30" fill="#f3f8ff"/>
<path d="M175 382 C250 315 330 438 365 354" stroke="#0a7aff" stroke-width="10" fill="none" stroke-linecap="round"/>
<path d="M178 330 L222 300 L274 328 L334 268" stroke="#071a3d" stroke-width="9" fill="none" stroke-linecap="round" stroke-linejoin="round"/>
<circle cx="222" cy="300" r="10" fill="#0a7aff"/><circle cx="274" cy="328" r="10" fill="#0a7aff"/><circle cx="334" cy="268" r="10" fill="#0a7aff"/>
<rect x="432" y="216" width="158" height="112" rx="24" fill="#f3f8ff"/><rect x="616" y="216" width="158" height="112" rx="24" fill="#f3f8ff"/>
<rect x="432" y="354" width="342" height="112" rx="24" fill="#f3f8ff"/>
<g transform="translate(468 243)"><rect x="0" y="40" width="78" height="32" rx="6" fill="url(#blue)"/><rect x="50" y="18" width="50" height="54" rx="6" fill="#0a7aff"/><circle cx="20" cy="78" r="10" fill="#071a3d"/><circle cx="84" cy="78" r="10" fill="#071a3d"/></g>
<g transform="translate(650 239)"><path d="M45 4 L94 22 V61 C94 96 66 117 45 126 C24 117 -4 96 -4 61 V22 Z" fill="url(#cyan)"/><path d="M25 64 L39 79 L67 45" stroke="#fff" stroke-width="9" fill="none" stroke-linecap="round" stroke-linejoin="round"/></g>
<path d="M468 408 L738 408" stroke="#071a3d" stroke-width="12" stroke-linecap="round"/><path d="M468 438 L660 438" stroke="#0a7aff" stroke-width="12" stroke-linecap="round"/>
</g>
<g filter="url(#shadow)">
<rect x="208" y="548" width="582" height="92" rx="28" fill="#071a3d"/>
<rect x="236" y="576" width="190" height="36" rx="18" fill="#0a7aff"/><rect x="456" y="576" width="118" height="36" rx="18" fill="#fff" opacity=".18"/><rect x="604" y="576" width="150" height="36" rx="18" fill="#fff" opacity=".18"/>
</g>
</svg>