<svg xmlns="http://www.w3.org/2000/svg" viewBox="0 0 720 520"><defs><linearGradient id="e" x1="0" x2="1"><stop stop-color="#071a3d"/><stop offset="1" stop-color="#096ee8"/></linearGradient><filter id="s"><feDropShadow dx="0" dy="22" stdDeviation="20" flood-color="#071a3d" flood-opacity=".16"/></filter></defs><rect width="720" height="520" rx="42" fill="#eef7ff"/><g filter="url(#s)"><rect x="70" y="80" width="580" height="360" rx="34" fill="#fff"/><circle cx="360" cy="260" r="134" fill="#f3f8ff" stroke="#cee3ff" stroke-width="12"/><path d="M226 260h268M360 126c46 53 68 99 68 134s-22 81-68 134M360 126c-46 53-68 99-68 134s22 81 68 134" stroke="#0a7aff" stroke-width="12" fill="none" stroke-linecap="round"/><path d="M240 200c78 29 160 30 240 0M240 320c78-29 160-30 240 0" stroke="#071a3d" stroke-width="10" fill="none" stroke-linecap="round" opacity=".45"/><path d="M149 351h146l36 41H180z" fill="#f5a524"/><path d="M458 154l110-34-35 107-25-48-50 47-25-25 50-47z" fill="url(#e)"/></g></svg>