<svg xmlns="http://www.w3.org/2000/svg" viewBox="0 0 720 520"><defs><linearGradient id="b" x1="0" x2="1"><stop stop-color="#071a3d"/><stop offset="1" stop-color="#096ee8"/></linearGradient><filter id="s"><feDropShadow dx="0" dy="22" stdDeviation="20" flood-color="#071a3d" flood-opacity=".16"/></filter></defs><rect width="720" height="520" rx="42" fill="#eef7ff"/><g filter="url(#s)"><rect x="70" y="80" width="580" height="360" rx="34" fill="#fff"/><path d="M142 304c75-82 149-124 239-124 73 0 124 23 198 88" fill="none" stroke="#0a7aff" stroke-width="14" stroke-linecap="round" stroke-dasharray="2 28"/><circle cx="154" cy="302" r="24" fill="#071a3d"/><circle cx="585" cy="270" r="24" fill="#0a7aff"/><rect x="128" y="330" width="180" height="64" rx="16" fill="url(#b)"/><rect x="396" y="104" width="172" height="122" rx="18" fill="#f3f8ff"/><path d="M420 132h120M420 163h90M420 194h110" stroke="#071a3d" stroke-width="12" stroke-linecap="round"/><path d="M342 277h108l38 51h-98z" fill="#f5a524"/><rect x="316" y="325" width="200" height="72" rx="12" fill="#0a7aff"/><circle cx="356" cy="410" r="18" fill="#071a3d"/><circle cx="480" cy="410" r="18" fill="#071a3d"/></g></svg>